<?xml version="1.0" encoding="UTF-8" standalone="no"?>
<!-- Created with Inkscape (http://www.inkscape.org/) -->

<svg
   xmlns:dc="http://purl.org/dc/elements/1.1/"
   xmlns:cc="http://creativecommons.org/ns#"
   xmlns:rdf="http://www.w3.org/1999/02/22-rdf-syntax-ns#"
   xmlns:svg="http://www.w3.org/2000/svg"
   xmlns="http://www.w3.org/2000/svg"
   xmlns:sodipodi="http://sodipodi.sourceforge.net/DTD/sodipodi-0.dtd"
   xmlns:inkscape="http://www.inkscape.org/namespaces/inkscape"
   width="48mm"
   height="48mm"
   viewBox="0 0 48 48"
   version="1.1"
   id="svg8"
   inkscape:version="0.92.2 5c3e80d, 2017-08-06"
   sodipodi:docname="c.b.svg">
  <defs
     id="defs2" />
  <sodipodi:namedview
     id="base"
     pagecolor="#ffffff"
     bordercolor="#666666"
     borderopacity="1.0"
     inkscape:pageopacity="0.0"
     inkscape:pageshadow="2"
     inkscape:zoom="1.0451163"
     inkscape:cx="18.178952"
     inkscape:cy="61.114229"
     inkscape:document-units="mm"
     inkscape:current-layer="layer1"
     showgrid="false"
     fit-margin-top="0"
     fit-margin-left="0"
     fit-margin-right="0"
     fit-margin-bottom="0"
     inkscape:window-width="1440"
     inkscape:window-height="855"
     inkscape:window-x="0"
     inkscape:window-y="1"
     inkscape:window-maximized="1" />
  <metadata
     id="metadata5">
    <rdf:RDF>
      <cc:Work
         rdf:about="">
        <dc:format>image/svg+xml</dc:format>
        <dc:type
           rdf:resource="http://purl.org/dc/dcmitype/StillImage" />
        <dc:title></dc:title>
      </cc:Work>
    </rdf:RDF>
  </metadata>
  <g
     inkscape:label="Layer 1"
     inkscape:groupmode="layer"
     id="layer1"
     transform="translate(-59.956547,-139.09964)">
    <g
       aria-label="c.b"
       transform="matrix(0.26458333,0,0,0.26458333,63.403276,166.26291)"
       style="font-style:normal;font-weight:normal;font-size:40px;line-height:125%;font-family:Sans;letter-spacing:0px;word-spacing:0px;fill:#000000;fill-opacity:1;stroke:#000000;stroke-width:3.77952766;stroke-linecap:butt;stroke-linejoin:miter;stroke-miterlimit:4;stroke-dasharray:none;stroke-opacity:1"
       id="flowRoot815">
      <path
         d="m 62.326172,24.782623 q -0.515625,0.945312 -1.804688,3.4375 -1.203125,2.492187 -3.351562,5.671875 -2.0625,3.09375 -4.984375,6.445312 -2.921875,3.351563 -6.703125,6.1875 -3.78125,2.75 -8.507813,4.554688 -4.640625,1.804687 -10.140625,1.804687 -4.898437,0 -8.679687,-1.804687 -3.78125,-1.71875 -6.445313,-4.898438 -2.6640621,-3.265625 -4.0390621,-7.648437 -1.375,-4.382813 -1.375,-9.710938 0,-5.15625 1.4609375,-9.625 1.4609375,-4.554687 3.9531246,-7.90625 2.578125,-3.3515624 5.929688,-5.2421874 3.351562,-1.9765625 7.132812,-1.9765625 2.835938,0 5.15625,1.03125 2.320313,0.9453125 3.867188,2.578125 1.632812,1.6328125 2.492187,3.6093749 0.945313,1.976563 0.945313,3.953125 0,1.890625 -0.515625,3.523438 -0.429688,1.632812 -1.203125,2.921875 -0.6875,1.203125 -1.632813,1.976562 -0.945312,0.6875 -1.890625,0.6875 -1.460937,0 -2.40625,-0.945312 -0.859375,-0.945313 -0.859375,-2.320313 0,-0.6875 0.257813,-1.203125 0.34375,-0.515625 0.6875,-1.03125 0.429687,-0.601562 0.6875,-1.375 0.34375,-0.859375 0.34375,-2.148437 0,-1.804688 -1.71875,-3.265625 -1.632813,-1.460938 -4.210938,-1.460938 -2.40625,0 -4.640625,1.460938 -2.148437,1.460937 -3.78125,3.953125 -1.632812,2.40625 -2.664062,5.757812 -0.945313,3.265625 -0.945313,6.960938 0,3.523437 0.859375,6.703125 0.859375,3.179687 2.578125,5.671875 1.71875,2.40625 4.296875,3.867187 2.664063,1.460938 6.273438,1.460938 4.640625,0 8.59375,-1.632813 3.953125,-1.71875 7.21875,-4.296875 3.265625,-2.578125 5.757812,-5.585937 2.492188,-3.09375 4.210938,-5.757813 1.804687,-2.75 2.75,-4.726562 1.03125,-2.0625 1.203125,-2.578125 0.34375,-0.859375 1.117187,-1.289063 0.859375,-0.515625 1.804688,-0.515625 1.460937,0 2.320312,1.03125 0.945313,1.03125 0.945313,2.320313 0,0.515625 -0.34375,1.375 z"
         style="font-style:normal;font-variant:normal;font-weight:normal;font-stretch:normal;font-size:176px;font-family:Sacramento;-inkscape-font-specification:Sacramento;stroke:#000000;stroke-width:3.77952766;stroke-miterlimit:4;stroke-dasharray:none;stroke-opacity:1"
         id="path823"
         inkscape:connector-curvature="0" />
      <path
         d="m 73.841797,46.095123 q 0,1.976562 -1.375,3.265625 -1.289063,1.375 -3.265625,1.375 -1.976563,0 -3.351563,-1.375 -1.289062,-1.289063 -1.289062,-3.265625 0,-1.890625 1.289062,-3.179688 1.375,-1.375 3.351563,-1.375 1.976562,0 3.265625,1.375 1.375,1.289063 1.375,3.179688 z"
         style="font-style:normal;font-variant:normal;font-weight:normal;font-stretch:normal;font-size:176px;font-family:Sacramento;-inkscape-font-specification:Sacramento;stroke:#000000;stroke-width:3.77952766;stroke-miterlimit:4;stroke-dasharray:none;stroke-opacity:1"
         id="path825"
         inkscape:connector-curvature="0" />
      <path
         d="m 156.72461,24.782623 c -0.17187,0.34375 -0.54427,1.059896 -1.11719,2.148437 -0.57291,1.03125 -1.3177,2.263021 -2.23437,3.695313 -0.91667,1.375 -2.00521,2.864583 -3.26563,4.46875 -1.26041,1.546875 -2.63541,2.979166 -4.125,4.296875 -1.48958,1.317708 -3.09375,2.40625 -4.8125,3.265625 -1.71875,0.859375 -3.49479,1.289062 -5.32812,1.289062 -2.97917,0 -5.5,-0.515625 -7.5625,-1.546875 -2.0625,-1.088541 -3.75261,-2.291666 -5.07032,-3.609375 -0.91667,2.005209 -2.03385,3.838542 -3.35156,5.5 -1.31771,1.661459 -2.77864,3.09375 -4.38281,4.296875 -1.60417,1.260417 -3.32292,2.234375 -5.15625,2.921875 -1.77604,0.6875 -3.60937,1.03125 -5.5,1.03125 -3.49479,0 -6.47396,-1.03125 -8.937501,-3.09375 -2.463541,-2.0625 -4.526041,-4.8125 -6.1875,-8.25 -1.604167,-3.494791 -2.864583,-7.533854 -3.78125,-12.117187 -0.916667,-4.583333 -1.632812,-9.395833 -2.148437,-14.4375 C 83.305339,9.6003311 83.01888,4.5013726 82.904297,-0.65487737 82.789714,-5.8111274 82.732422,-10.709565 82.732422,-15.35019 c 0,-8.880208 0.257812,-16.557291 0.773437,-23.03125 0.515625,-6.53125 1.203125,-12.059896 2.0625,-16.585937 0.916667,-4.583333 1.947917,-8.278646 3.09375,-11.085938 1.203125,-2.864583 2.463542,-5.070312 3.78125,-6.617187 1.317709,-1.604167 2.664062,-2.692708 4.039061,-3.265625 1.375,-0.572917 2.721353,-0.859375 4.03906,-0.859375 2.11979,0 3.98177,0.630208 5.58594,1.890625 1.66146,1.260417 3.03646,3.036458 4.125,5.328125 1.14583,2.234375 2.00521,4.955729 2.57813,8.164062 0.57291,3.208333 0.85937,6.731771 0.85937,10.570313 0,6.130208 -0.65885,12.460937 -1.97656,18.992187 -1.31771,6.53125 -3.03646,13.0625 -5.15625,19.59375 -2.0625,6.4739584 -4.38281,12.86197927 -6.96094,19.1640626 -2.578124,6.2447914 -5.127603,12.1744794 -7.648436,17.7890624 0.34375,2.807292 0.859375,5.5 1.546875,8.078125 0.6875,2.520833 1.57552,4.783854 2.664061,6.789063 1.08854,1.947917 2.377603,3.523437 3.86719,4.726562 1.48958,1.145833 3.20833,1.71875 5.15625,1.71875 1.94791,0 3.78125,-0.544271 5.5,-1.632812 1.71875,-1.145833 3.20833,-2.606771 4.46875,-4.382813 1.26041,-1.833333 2.23437,-3.895833 2.92187,-6.1875 0.74479,-2.291667 1.11719,-4.640625 1.11719,-7.046875 0,-1.604167 -0.17187,-3.208333 -0.51562,-4.8125 -0.28646,-1.661458 -0.77344,-3.122395 -1.46094,-4.382812 -0.63021,-1.317709 -1.43229,-2.377605 -2.40625,-3.179688 -0.97396,-0.802083 -2.14844,-1.203125 -3.52344,-1.203125 -1.03125,0 -1.83333,0.229167 -2.40625,0.6875 -0.57291,0.401042 -1.0026,0.888021 -1.28906,1.460938 -0.28646,0.515625 -0.45834,1.03125 -0.51563,1.546875 -0.0573,0.515625 -0.0859,0.859375 -0.0859,1.03125 0,0.802083 0.17187,1.604167 0.51562,2.40625 0.34375,0.802083 1.00261,1.518229 1.97656,2.148437 0.97396,0.6875 1.46094,1.632813 1.46094,2.835938 0,0.973958 -0.34375,1.747395 -1.03125,2.320312 -0.63021,0.572917 -1.34635,0.859375 -2.14844,0.859375 -1.14583,0 -2.17708,-0.34375 -3.09375,-1.03125 -0.85937,-0.6875 -1.60416,-1.546875 -2.23437,-2.578125 -0.63021,-1.088541 -1.11719,-2.234375 -1.46094,-3.4375 -0.34375,-1.203125 -0.51562,-2.320312 -0.51562,-3.351562 0,-1.661459 0.28646,-3.179688 0.85937,-4.554688 0.57292,-1.432291 1.34636,-2.635416 2.32031,-3.6093749 1.03125,-1.03125 2.17709,-1.8046875 3.4375,-2.3203125 1.31771,-0.5729167 2.69271,-0.859375 4.125,-0.859375 2.46355,0 4.58334,0.5729167 6.35938,1.71875 1.83333,1.1458336 3.35156,2.6640624 4.55469,4.5546874 1.20312,1.890625 2.09114,4.039063 2.66406,6.445313 0.57291,2.40625 0.85937,4.841146 0.85937,7.304687 0,1.432292 -0.0859,2.835938 -0.25781,4.210938 0.22917,0.458333 0.60156,1.059896 1.11719,1.804687 0.51563,0.744792 1.20313,1.460938 2.0625,2.148438 0.85937,0.6875 1.89062,1.289062 3.09375,1.804687 1.20313,0.515625 2.60677,0.773438 4.21094,0.773438 1.375,0 2.77864,-0.515625 4.21093,-1.546875 1.48959,-1.088542 2.89323,-2.40625 4.21094,-3.953125 1.375,-1.604167 2.63542,-3.294271 3.78125,-5.070313 1.14583,-1.833333 2.09115,-3.523437 2.83594,-5.070312 0.28646,-0.572917 0.6875,-1.002604 1.20312,-1.289063 0.51563,-0.34375 1.08854,-0.515625 1.71875,-0.515625 0.97396,0 1.7474,0.34375 2.32032,1.03125 0.63021,0.6875 0.94531,1.460938 0.94531,2.320313 0,0.34375 -0.11458,0.802083 -0.34375,1.375 z M 90.294922,13.696685 c 1.947917,-4.8124999 3.924479,-9.8541666 5.929688,-15.1249999 2.005207,-5.328125 3.80989,-10.7421871 5.41406,-16.2421871 1.60417,-5.5 2.92188,-11.057292 3.95313,-16.671875 1.03125,-5.614583 1.54687,-11.143229 1.54687,-16.585938 0,-2.0625 -0.11458,-4.210937 -0.34375,-6.445312 -0.17187,-2.291667 -0.51562,-4.382813 -1.03125,-6.273438 -0.51563,-1.890625 -1.23177,-3.466145 -2.14844,-4.726562 -0.85937,-1.260417 -1.97656,-1.890625 -3.35156,-1.890625 -0.458333,0 -1.059897,0.315104 -1.80469,0.945312 -0.6875,0.572917 -1.43229,1.632813 -2.23437,3.179688 -0.802084,1.489583 -1.604168,3.580729 -2.406251,6.273437 -0.802083,2.692709 -1.546875,6.130209 -2.234375,10.3125 -0.630208,4.125 -1.174479,9.109375 -1.632812,14.953125 -0.401042,5.84375 -0.601563,12.71875 -0.601563,20.625 0,2.635417 0.02865,5.328125 0.08594,8.0781251 0.05729,2.6927083 0.114585,5.27083333 0.171875,7.734375 0.114583,2.4635417 0.229167,4.7265625 0.34375,6.7890625 0.114583,2.0625004 0.229167,3.7526044 0.34375,5.0703124 z"
         style="font-style:normal;font-variant:normal;font-weight:normal;font-stretch:normal;font-size:176px;font-family:Sacramento;-inkscape-font-specification:Sacramento;stroke:#000000;stroke-width:3.77952766;stroke-miterlimit:4;stroke-dasharray:none;stroke-opacity:1"
         id="path827"
         inkscape:connector-curvature="0"
         sodipodi:nodetypes="ccccccsccsccsscscssccccsscccssccccccscccsccsscccsccscscccscccscccscsssscccccscsccccscscscsccsccsccscc" />
    </g>
  </g>
</svg>
